<mxfile host="app.diagrams.net" modified="2021-12-07T14:29:56.929Z" agent="5.0 (Macintosh; Intel Mac OS X 10_15_7) AppleWebKit/537.36 (KHTML, like Gecko) Chrome/96.0.4664.55 Safari/537.36" etag="XGHrAv8aLmLcshN7DmEw" version="15.9.1" type="github">
  <diagram id="1ukmui94cVdeeKyJZYyh" name="第 1 页">
    <mxGraphModel dx="1869" dy="557" grid="1" gridSize="10" guides="1" tooltips="1" connect="1" arrows="1" fold="1" page="1" pageScale="1" pageWidth="827" pageHeight="1169" math="0" shadow="0">
      <root>
        <mxCell id="0" />
        <mxCell id="1" parent="0" />
        <mxCell id="nsWa5MvO--46jtUWladC-15" value="" style="edgeStyle=orthogonalEdgeStyle;rounded=0;orthogonalLoop=1;jettySize=auto;html=1;fillColor=#ffcd28;gradientColor=#ffa500;strokeColor=#d79b00;" edge="1" parent="1" source="nsWa5MvO--46jtUWladC-13" target="nsWa5MvO--46jtUWladC-14">
          <mxGeometry relative="1" as="geometry" />
        </mxCell>
        <mxCell id="nsWa5MvO--46jtUWladC-13" value="3" style="rounded=0;whiteSpace=wrap;html=1;shadow=1;glass=0;sketch=1;fillColor=#ffcd28;gradientColor=#ffa500;strokeColor=#d79b00;" vertex="1" parent="1">
          <mxGeometry x="240" y="40" width="40" height="30" as="geometry" />
        </mxCell>
        <mxCell id="nsWa5MvO--46jtUWladC-17" value="" style="edgeStyle=orthogonalEdgeStyle;rounded=0;orthogonalLoop=1;jettySize=auto;html=1;fillColor=#ffcd28;gradientColor=#ffa500;strokeColor=#d79b00;" edge="1" parent="1" source="nsWa5MvO--46jtUWladC-14" target="nsWa5MvO--46jtUWladC-16">
          <mxGeometry relative="1" as="geometry" />
        </mxCell>
        <mxCell id="nsWa5MvO--46jtUWladC-14" value="2" style="rounded=0;whiteSpace=wrap;html=1;shadow=1;glass=0;sketch=1;fillColor=#ffcd28;gradientColor=#ffa500;strokeColor=#d79b00;" vertex="1" parent="1">
          <mxGeometry x="320" y="40" width="40" height="30" as="geometry" />
        </mxCell>
        <mxCell id="nsWa5MvO--46jtUWladC-19" value="" style="edgeStyle=orthogonalEdgeStyle;rounded=0;orthogonalLoop=1;jettySize=auto;html=1;fillColor=#ffcd28;gradientColor=#ffa500;strokeColor=#d79b00;" edge="1" parent="1" source="nsWa5MvO--46jtUWladC-16" target="nsWa5MvO--46jtUWladC-18">
          <mxGeometry relative="1" as="geometry" />
        </mxCell>
        <mxCell id="nsWa5MvO--46jtUWladC-16" value="1" style="rounded=0;whiteSpace=wrap;html=1;shadow=1;glass=0;sketch=1;fillColor=#ffcd28;gradientColor=#ffa500;strokeColor=#d79b00;" vertex="1" parent="1">
          <mxGeometry x="400" y="40" width="40" height="30" as="geometry" />
        </mxCell>
        <mxCell id="nsWa5MvO--46jtUWladC-22" value="" style="edgeStyle=orthogonalEdgeStyle;rounded=0;orthogonalLoop=1;jettySize=auto;html=1;fillColor=#ffcd28;gradientColor=#ffa500;strokeColor=#d79b00;" edge="1" parent="1" source="nsWa5MvO--46jtUWladC-18" target="nsWa5MvO--46jtUWladC-21">
          <mxGeometry relative="1" as="geometry" />
        </mxCell>
        <mxCell id="nsWa5MvO--46jtUWladC-18" value="5" style="rounded=0;whiteSpace=wrap;html=1;shadow=1;glass=0;sketch=1;fillColor=#ffcd28;gradientColor=#ffa500;strokeColor=#d79b00;" vertex="1" parent="1">
          <mxGeometry x="480" y="40" width="40" height="30" as="geometry" />
        </mxCell>
        <mxCell id="nsWa5MvO--46jtUWladC-24" value="" style="edgeStyle=orthogonalEdgeStyle;rounded=0;orthogonalLoop=1;jettySize=auto;html=1;fillColor=#ffcd28;gradientColor=#ffa500;strokeColor=#d79b00;" edge="1" parent="1" source="nsWa5MvO--46jtUWladC-21" target="nsWa5MvO--46jtUWladC-23">
          <mxGeometry relative="1" as="geometry" />
        </mxCell>
        <mxCell id="nsWa5MvO--46jtUWladC-21" value="4" style="rounded=0;whiteSpace=wrap;html=1;shadow=1;glass=0;sketch=1;fillColor=#ffcd28;gradientColor=#ffa500;strokeColor=#d79b00;" vertex="1" parent="1">
          <mxGeometry x="560" y="40" width="40" height="30" as="geometry" />
        </mxCell>
        <mxCell id="nsWa5MvO--46jtUWladC-126" value="" style="edgeStyle=none;rounded=0;orthogonalLoop=1;jettySize=auto;html=1;fontSize=18;startArrow=none;startFill=0;fillColor=#ffcd28;gradientColor=#ffa500;strokeColor=#d79b00;" edge="1" parent="1" source="nsWa5MvO--46jtUWladC-23" target="nsWa5MvO--46jtUWladC-125">
          <mxGeometry relative="1" as="geometry" />
        </mxCell>
        <mxCell id="nsWa5MvO--46jtUWladC-23" value="8" style="rounded=0;whiteSpace=wrap;html=1;shadow=1;glass=0;sketch=1;fillColor=#ffcd28;gradientColor=#ffa500;strokeColor=#d79b00;" vertex="1" parent="1">
          <mxGeometry x="640" y="40" width="40" height="30" as="geometry" />
        </mxCell>
        <mxCell id="nsWa5MvO--46jtUWladC-25" value="" style="edgeStyle=orthogonalEdgeStyle;rounded=0;orthogonalLoop=1;jettySize=auto;html=1;fillColor=#f5f5f5;gradientColor=#b3b3b3;strokeColor=#666666;" edge="1" parent="1" source="nsWa5MvO--46jtUWladC-26" target="nsWa5MvO--46jtUWladC-28">
          <mxGeometry relative="1" as="geometry" />
        </mxCell>
        <mxCell id="nsWa5MvO--46jtUWladC-26" value="3" style="rounded=0;whiteSpace=wrap;html=1;shadow=1;glass=0;sketch=1;fillColor=#f5f5f5;gradientColor=#b3b3b3;strokeColor=#666666;" vertex="1" parent="1">
          <mxGeometry x="200" y="160" width="40" height="30" as="geometry" />
        </mxCell>
        <mxCell id="nsWa5MvO--46jtUWladC-27" value="" style="edgeStyle=orthogonalEdgeStyle;rounded=0;orthogonalLoop=1;jettySize=auto;html=1;fillColor=#f5f5f5;gradientColor=#b3b3b3;strokeColor=#666666;" edge="1" parent="1" source="nsWa5MvO--46jtUWladC-28" target="nsWa5MvO--46jtUWladC-29">
          <mxGeometry relative="1" as="geometry" />
        </mxCell>
        <mxCell id="nsWa5MvO--46jtUWladC-28" value="2" style="rounded=0;whiteSpace=wrap;html=1;shadow=1;glass=0;sketch=1;fillColor=#f5f5f5;gradientColor=#b3b3b3;strokeColor=#666666;" vertex="1" parent="1">
          <mxGeometry x="280" y="160" width="40" height="30" as="geometry" />
        </mxCell>
        <mxCell id="nsWa5MvO--46jtUWladC-29" value="1" style="rounded=0;whiteSpace=wrap;html=1;shadow=1;glass=0;sketch=1;fillColor=#f5f5f5;gradientColor=#b3b3b3;strokeColor=#666666;" vertex="1" parent="1">
          <mxGeometry x="360" y="160" width="40" height="30" as="geometry" />
        </mxCell>
        <mxCell id="nsWa5MvO--46jtUWladC-30" value="" style="edgeStyle=orthogonalEdgeStyle;rounded=0;orthogonalLoop=1;jettySize=auto;html=1;fillColor=#f5f5f5;gradientColor=#b3b3b3;strokeColor=#666666;" edge="1" parent="1" source="nsWa5MvO--46jtUWladC-31" target="nsWa5MvO--46jtUWladC-33">
          <mxGeometry relative="1" as="geometry" />
        </mxCell>
        <mxCell id="nsWa5MvO--46jtUWladC-31" value="5" style="rounded=0;whiteSpace=wrap;html=1;shadow=1;glass=0;sketch=1;fillColor=#f5f5f5;gradientColor=#b3b3b3;strokeColor=#666666;" vertex="1" parent="1">
          <mxGeometry x="520" y="160" width="40" height="30" as="geometry" />
        </mxCell>
        <mxCell id="nsWa5MvO--46jtUWladC-32" value="" style="edgeStyle=orthogonalEdgeStyle;rounded=0;orthogonalLoop=1;jettySize=auto;html=1;fillColor=#f5f5f5;gradientColor=#b3b3b3;strokeColor=#666666;" edge="1" parent="1" source="nsWa5MvO--46jtUWladC-33" target="nsWa5MvO--46jtUWladC-34">
          <mxGeometry relative="1" as="geometry" />
        </mxCell>
        <mxCell id="nsWa5MvO--46jtUWladC-33" value="4" style="rounded=0;whiteSpace=wrap;html=1;shadow=1;glass=0;sketch=1;fillColor=#f5f5f5;gradientColor=#b3b3b3;strokeColor=#666666;" vertex="1" parent="1">
          <mxGeometry x="600" y="160" width="40" height="30" as="geometry" />
        </mxCell>
        <mxCell id="nsWa5MvO--46jtUWladC-139" value="" style="edgeStyle=none;rounded=0;orthogonalLoop=1;jettySize=auto;html=1;fontSize=18;startArrow=none;startFill=0;fillColor=#f5f5f5;gradientColor=#b3b3b3;strokeColor=#666666;" edge="1" parent="1" source="nsWa5MvO--46jtUWladC-34" target="nsWa5MvO--46jtUWladC-138">
          <mxGeometry relative="1" as="geometry" />
        </mxCell>
        <mxCell id="nsWa5MvO--46jtUWladC-34" value="8" style="rounded=0;whiteSpace=wrap;html=1;shadow=1;glass=0;sketch=1;fillColor=#f5f5f5;gradientColor=#b3b3b3;strokeColor=#666666;" vertex="1" parent="1">
          <mxGeometry x="680" y="160" width="40" height="30" as="geometry" />
        </mxCell>
        <mxCell id="nsWa5MvO--46jtUWladC-36" value="" style="line;strokeWidth=2;html=1;rounded=0;shadow=1;glass=0;sketch=1;fillColor=#ffcd28;gradientColor=#ffa500;strokeColor=#d79b00;" vertex="1" parent="1">
          <mxGeometry x="170" y="80" width="270" height="10" as="geometry" />
        </mxCell>
        <mxCell id="nsWa5MvO--46jtUWladC-37" value="" style="line;strokeWidth=2;html=1;rounded=0;shadow=1;glass=0;sketch=1;fillColor=#ffcd28;gradientColor=#ffa500;strokeColor=#d79b00;" vertex="1" parent="1">
          <mxGeometry x="480" y="80" width="270" height="10" as="geometry" />
        </mxCell>
        <mxCell id="nsWa5MvO--46jtUWladC-40" value="" style="line;strokeWidth=2;html=1;rounded=0;shadow=1;glass=0;sketch=1;fillColor=#f5f5f5;gradientColor=#b3b3b3;strokeColor=#666666;" vertex="1" parent="1">
          <mxGeometry x="120" y="200" width="120" height="10" as="geometry" />
        </mxCell>
        <mxCell id="nsWa5MvO--46jtUWladC-43" value="" style="line;strokeWidth=2;html=1;rounded=0;shadow=1;glass=0;sketch=1;fillColor=#f5f5f5;gradientColor=#b3b3b3;strokeColor=#666666;" vertex="1" parent="1">
          <mxGeometry x="520" y="200" width="120" height="10" as="geometry" />
        </mxCell>
        <mxCell id="nsWa5MvO--46jtUWladC-112" value="&lt;font style=&quot;font-size: 18px&quot;&gt;分割&lt;/font&gt;" style="text;html=1;strokeColor=#666666;fillColor=#f5f5f5;align=center;verticalAlign=middle;whiteSpace=wrap;rounded=0;shadow=1;glass=0;sketch=1;gradientColor=#b3b3b3;" vertex="1" parent="1">
          <mxGeometry x="-40" y="100" width="70" height="40" as="geometry" />
        </mxCell>
        <mxCell id="nsWa5MvO--46jtUWladC-125" value="0" style="rounded=0;whiteSpace=wrap;html=1;shadow=1;glass=0;sketch=1;fillColor=#ffcd28;gradientColor=#ffa500;strokeColor=#d79b00;" vertex="1" parent="1">
          <mxGeometry x="720" y="40" width="40" height="30" as="geometry" />
        </mxCell>
        <mxCell id="nsWa5MvO--46jtUWladC-134" style="edgeStyle=none;rounded=0;orthogonalLoop=1;jettySize=auto;html=1;exitX=1;exitY=0.5;exitDx=0;exitDy=0;entryX=0;entryY=0.5;entryDx=0;entryDy=0;fontSize=18;startArrow=none;startFill=0;fillColor=#ffcd28;gradientColor=#ffa500;strokeColor=#d79b00;" edge="1" parent="1" source="nsWa5MvO--46jtUWladC-127" target="nsWa5MvO--46jtUWladC-13">
          <mxGeometry relative="1" as="geometry" />
        </mxCell>
        <mxCell id="nsWa5MvO--46jtUWladC-127" value="6" style="rounded=0;whiteSpace=wrap;html=1;shadow=1;glass=0;sketch=1;fillColor=#ffcd28;gradientColor=#ffa500;strokeColor=#d79b00;" vertex="1" parent="1">
          <mxGeometry x="160" y="40" width="40" height="30" as="geometry" />
        </mxCell>
        <mxCell id="nsWa5MvO--46jtUWladC-135" style="edgeStyle=none;rounded=0;orthogonalLoop=1;jettySize=auto;html=1;exitX=1;exitY=0.5;exitDx=0;exitDy=0;entryX=0;entryY=0.5;entryDx=0;entryDy=0;fontSize=18;startArrow=none;startFill=0;fillColor=#f5f5f5;gradientColor=#b3b3b3;strokeColor=#666666;" edge="1" parent="1" source="nsWa5MvO--46jtUWladC-131" target="nsWa5MvO--46jtUWladC-26">
          <mxGeometry relative="1" as="geometry" />
        </mxCell>
        <mxCell id="nsWa5MvO--46jtUWladC-131" value="6" style="rounded=0;whiteSpace=wrap;html=1;shadow=1;glass=0;sketch=1;fillColor=#f5f5f5;gradientColor=#b3b3b3;strokeColor=#666666;" vertex="1" parent="1">
          <mxGeometry x="120" y="160" width="40" height="30" as="geometry" />
        </mxCell>
        <mxCell id="nsWa5MvO--46jtUWladC-137" value="" style="line;strokeWidth=2;html=1;rounded=0;shadow=1;glass=0;sketch=1;fillColor=#f5f5f5;gradientColor=#b3b3b3;strokeColor=#666666;" vertex="1" parent="1">
          <mxGeometry x="280" y="200" width="120" height="10" as="geometry" />
        </mxCell>
        <mxCell id="nsWa5MvO--46jtUWladC-138" value="0" style="rounded=0;whiteSpace=wrap;html=1;shadow=1;glass=0;sketch=1;fillColor=#f5f5f5;gradientColor=#b3b3b3;strokeColor=#666666;" vertex="1" parent="1">
          <mxGeometry x="760" y="160" width="40" height="30" as="geometry" />
        </mxCell>
        <mxCell id="nsWa5MvO--46jtUWladC-140" value="" style="line;strokeWidth=2;html=1;rounded=0;shadow=1;glass=0;sketch=1;fillColor=#f5f5f5;gradientColor=#b3b3b3;strokeColor=#666666;" vertex="1" parent="1">
          <mxGeometry x="680" y="200" width="120" height="10" as="geometry" />
        </mxCell>
        <mxCell id="nsWa5MvO--46jtUWladC-141" value="3" style="rounded=0;whiteSpace=wrap;html=1;shadow=1;glass=0;sketch=1;fillColor=#f5f5f5;gradientColor=#b3b3b3;strokeColor=#666666;" vertex="1" parent="1">
          <mxGeometry x="160" y="280" width="40" height="30" as="geometry" />
        </mxCell>
        <mxCell id="nsWa5MvO--46jtUWladC-142" value="" style="line;strokeWidth=2;html=1;rounded=0;shadow=1;glass=0;sketch=1;fillColor=#f5f5f5;gradientColor=#b3b3b3;strokeColor=#666666;" vertex="1" parent="1">
          <mxGeometry x="80" y="320" width="40" height="10" as="geometry" />
        </mxCell>
        <mxCell id="nsWa5MvO--46jtUWladC-143" style="edgeStyle=none;rounded=0;orthogonalLoop=1;jettySize=auto;html=1;exitX=1;exitY=0.5;exitDx=0;exitDy=0;entryX=0;entryY=0.5;entryDx=0;entryDy=0;fontSize=18;startArrow=none;startFill=0;fillColor=#f5f5f5;gradientColor=#b3b3b3;strokeColor=#666666;" edge="1" parent="1" source="nsWa5MvO--46jtUWladC-144" target="nsWa5MvO--46jtUWladC-141">
          <mxGeometry relative="1" as="geometry" />
        </mxCell>
        <mxCell id="nsWa5MvO--46jtUWladC-144" value="6" style="rounded=0;whiteSpace=wrap;html=1;shadow=1;glass=0;sketch=1;fillColor=#f5f5f5;gradientColor=#b3b3b3;strokeColor=#666666;" vertex="1" parent="1">
          <mxGeometry x="80" y="280" width="40" height="30" as="geometry" />
        </mxCell>
        <mxCell id="nsWa5MvO--46jtUWladC-145" value="" style="edgeStyle=orthogonalEdgeStyle;rounded=0;orthogonalLoop=1;jettySize=auto;html=1;fillColor=#f5f5f5;gradientColor=#b3b3b3;strokeColor=#666666;" edge="1" parent="1" source="nsWa5MvO--46jtUWladC-146" target="nsWa5MvO--46jtUWladC-147">
          <mxGeometry relative="1" as="geometry" />
        </mxCell>
        <mxCell id="nsWa5MvO--46jtUWladC-146" value="2" style="rounded=0;whiteSpace=wrap;html=1;shadow=1;glass=0;sketch=1;fillColor=#f5f5f5;gradientColor=#b3b3b3;strokeColor=#666666;" vertex="1" parent="1">
          <mxGeometry x="280" y="280" width="40" height="30" as="geometry" />
        </mxCell>
        <mxCell id="nsWa5MvO--46jtUWladC-147" value="1" style="rounded=0;whiteSpace=wrap;html=1;shadow=1;glass=0;sketch=1;fillColor=#f5f5f5;gradientColor=#b3b3b3;strokeColor=#666666;" vertex="1" parent="1">
          <mxGeometry x="360" y="280" width="40" height="30" as="geometry" />
        </mxCell>
        <mxCell id="nsWa5MvO--46jtUWladC-149" value="" style="edgeStyle=none;rounded=0;orthogonalLoop=1;jettySize=auto;html=1;fontSize=18;startArrow=none;startFill=0;fillColor=#f5f5f5;gradientColor=#b3b3b3;strokeColor=#666666;" edge="1" parent="1" source="nsWa5MvO--46jtUWladC-150" target="nsWa5MvO--46jtUWladC-151">
          <mxGeometry relative="1" as="geometry" />
        </mxCell>
        <mxCell id="nsWa5MvO--46jtUWladC-150" value="8" style="rounded=0;whiteSpace=wrap;html=1;shadow=1;glass=0;sketch=1;fillColor=#f5f5f5;gradientColor=#b3b3b3;strokeColor=#666666;" vertex="1" parent="1">
          <mxGeometry x="720" y="280" width="40" height="30" as="geometry" />
        </mxCell>
        <mxCell id="nsWa5MvO--46jtUWladC-151" value="0" style="rounded=0;whiteSpace=wrap;html=1;shadow=1;glass=0;sketch=1;fillColor=#f5f5f5;gradientColor=#b3b3b3;strokeColor=#666666;" vertex="1" parent="1">
          <mxGeometry x="800" y="280" width="40" height="30" as="geometry" />
        </mxCell>
        <mxCell id="nsWa5MvO--46jtUWladC-153" value="" style="edgeStyle=orthogonalEdgeStyle;rounded=0;orthogonalLoop=1;jettySize=auto;html=1;fillColor=#f5f5f5;gradientColor=#b3b3b3;strokeColor=#666666;" edge="1" parent="1" source="nsWa5MvO--46jtUWladC-154" target="nsWa5MvO--46jtUWladC-155">
          <mxGeometry relative="1" as="geometry" />
        </mxCell>
        <mxCell id="nsWa5MvO--46jtUWladC-154" value="5" style="rounded=0;whiteSpace=wrap;html=1;shadow=1;glass=0;sketch=1;fillColor=#f5f5f5;gradientColor=#b3b3b3;strokeColor=#666666;" vertex="1" parent="1">
          <mxGeometry x="520" y="280" width="40" height="30" as="geometry" />
        </mxCell>
        <mxCell id="nsWa5MvO--46jtUWladC-155" value="4" style="rounded=0;whiteSpace=wrap;html=1;shadow=1;glass=0;sketch=1;fillColor=#f5f5f5;gradientColor=#b3b3b3;strokeColor=#666666;" vertex="1" parent="1">
          <mxGeometry x="600" y="280" width="40" height="30" as="geometry" />
        </mxCell>
        <mxCell id="nsWa5MvO--46jtUWladC-157" value="&lt;font style=&quot;font-size: 18px&quot;&gt;分割&lt;/font&gt;" style="text;html=1;strokeColor=#666666;fillColor=#f5f5f5;align=center;verticalAlign=middle;whiteSpace=wrap;rounded=0;shadow=1;glass=0;sketch=1;gradientColor=#b3b3b3;" vertex="1" parent="1">
          <mxGeometry x="-40" y="210" width="70" height="40" as="geometry" />
        </mxCell>
        <mxCell id="nsWa5MvO--46jtUWladC-162" value="" style="line;strokeWidth=2;html=1;rounded=0;shadow=1;glass=0;sketch=1;fillColor=#f5f5f5;gradientColor=#b3b3b3;strokeColor=#666666;" vertex="1" parent="1">
          <mxGeometry x="160" y="320" width="40" height="10" as="geometry" />
        </mxCell>
        <mxCell id="nsWa5MvO--46jtUWladC-163" value="" style="line;strokeWidth=2;html=1;rounded=0;shadow=1;glass=0;sketch=1;fillColor=#f5f5f5;gradientColor=#b3b3b3;strokeColor=#666666;" vertex="1" parent="1">
          <mxGeometry x="280" y="320" width="40" height="10" as="geometry" />
        </mxCell>
        <mxCell id="nsWa5MvO--46jtUWladC-164" value="" style="line;strokeWidth=2;html=1;rounded=0;shadow=1;glass=0;sketch=1;fillColor=#f5f5f5;gradientColor=#b3b3b3;strokeColor=#666666;" vertex="1" parent="1">
          <mxGeometry x="360" y="320" width="40" height="10" as="geometry" />
        </mxCell>
        <mxCell id="nsWa5MvO--46jtUWladC-165" value="" style="line;strokeWidth=2;html=1;rounded=0;shadow=1;glass=0;sketch=1;fillColor=#f5f5f5;gradientColor=#b3b3b3;strokeColor=#666666;" vertex="1" parent="1">
          <mxGeometry x="520" y="320" width="40" height="10" as="geometry" />
        </mxCell>
        <mxCell id="nsWa5MvO--46jtUWladC-167" value="" style="line;strokeWidth=2;html=1;rounded=0;shadow=1;glass=0;sketch=1;fillColor=#f5f5f5;gradientColor=#b3b3b3;strokeColor=#666666;" vertex="1" parent="1">
          <mxGeometry x="600" y="320" width="40" height="10" as="geometry" />
        </mxCell>
        <mxCell id="nsWa5MvO--46jtUWladC-168" value="" style="line;strokeWidth=2;html=1;rounded=0;shadow=1;glass=0;sketch=1;fillColor=#f5f5f5;gradientColor=#b3b3b3;strokeColor=#666666;" vertex="1" parent="1">
          <mxGeometry x="720" y="320" width="40" height="10" as="geometry" />
        </mxCell>
        <mxCell id="nsWa5MvO--46jtUWladC-169" value="" style="line;strokeWidth=2;html=1;rounded=0;shadow=1;glass=0;sketch=1;fillColor=#f5f5f5;gradientColor=#b3b3b3;strokeColor=#666666;" vertex="1" parent="1">
          <mxGeometry x="800" y="320" width="40" height="10" as="geometry" />
        </mxCell>
        <mxCell id="nsWa5MvO--46jtUWladC-170" value="3" style="rounded=0;whiteSpace=wrap;html=1;shadow=1;glass=0;sketch=1;fillColor=#f8cecc;gradientColor=#ea6b66;strokeColor=#b85450;" vertex="1" parent="1">
          <mxGeometry x="160" y="400" width="40" height="30" as="geometry" />
        </mxCell>
        <mxCell id="nsWa5MvO--46jtUWladC-173" value="6" style="rounded=0;whiteSpace=wrap;html=1;shadow=1;glass=0;sketch=1;fillColor=#f8cecc;gradientColor=#ea6b66;strokeColor=#b85450;" vertex="1" parent="1">
          <mxGeometry x="80" y="400" width="40" height="30" as="geometry" />
        </mxCell>
        <mxCell id="nsWa5MvO--46jtUWladC-175" value="2" style="rounded=0;whiteSpace=wrap;html=1;shadow=1;glass=0;sketch=1;fillColor=#f8cecc;gradientColor=#ea6b66;strokeColor=#b85450;" vertex="1" parent="1">
          <mxGeometry x="280" y="400" width="40" height="30" as="geometry" />
        </mxCell>
        <mxCell id="nsWa5MvO--46jtUWladC-176" value="1" style="rounded=0;whiteSpace=wrap;html=1;shadow=1;glass=0;sketch=1;fillColor=#f8cecc;gradientColor=#ea6b66;strokeColor=#b85450;" vertex="1" parent="1">
          <mxGeometry x="360" y="400" width="40" height="30" as="geometry" />
        </mxCell>
        <mxCell id="nsWa5MvO--46jtUWladC-178" value="8" style="rounded=0;whiteSpace=wrap;html=1;shadow=1;glass=0;sketch=1;fillColor=#f8cecc;gradientColor=#ea6b66;strokeColor=#b85450;" vertex="1" parent="1">
          <mxGeometry x="720" y="400" width="40" height="30" as="geometry" />
        </mxCell>
        <mxCell id="nsWa5MvO--46jtUWladC-179" value="0" style="rounded=0;whiteSpace=wrap;html=1;shadow=1;glass=0;sketch=1;fillColor=#f8cecc;gradientColor=#ea6b66;strokeColor=#b85450;" vertex="1" parent="1">
          <mxGeometry x="800" y="400" width="40" height="30" as="geometry" />
        </mxCell>
        <mxCell id="nsWa5MvO--46jtUWladC-181" value="5" style="rounded=0;whiteSpace=wrap;html=1;shadow=1;glass=0;sketch=1;fillColor=#f8cecc;gradientColor=#ea6b66;strokeColor=#b85450;" vertex="1" parent="1">
          <mxGeometry x="520" y="400" width="40" height="30" as="geometry" />
        </mxCell>
        <mxCell id="nsWa5MvO--46jtUWladC-182" value="4" style="rounded=0;whiteSpace=wrap;html=1;shadow=1;glass=0;sketch=1;fillColor=#f8cecc;gradientColor=#ea6b66;strokeColor=#b85450;" vertex="1" parent="1">
          <mxGeometry x="600" y="400" width="40" height="30" as="geometry" />
        </mxCell>
        <mxCell id="nsWa5MvO--46jtUWladC-190" value="6" style="rounded=0;whiteSpace=wrap;html=1;shadow=1;glass=0;sketch=1;fillColor=#d5e8d4;gradientColor=#97d077;strokeColor=#82b366;" vertex="1" parent="1">
          <mxGeometry x="160" y="520" width="40" height="30" as="geometry" />
        </mxCell>
        <mxCell id="nsWa5MvO--46jtUWladC-192" style="edgeStyle=none;rounded=0;orthogonalLoop=1;jettySize=auto;html=1;exitX=1;exitY=0.5;exitDx=0;exitDy=0;entryX=0;entryY=0.5;entryDx=0;entryDy=0;fontSize=18;startArrow=none;startFill=0;fillColor=#d5e8d4;gradientColor=#97d077;strokeColor=#82b366;" edge="1" parent="1" source="nsWa5MvO--46jtUWladC-193" target="nsWa5MvO--46jtUWladC-190">
          <mxGeometry relative="1" as="geometry" />
        </mxCell>
        <mxCell id="nsWa5MvO--46jtUWladC-193" value="3" style="rounded=0;whiteSpace=wrap;html=1;shadow=1;glass=0;sketch=1;fillColor=#d5e8d4;gradientColor=#97d077;strokeColor=#82b366;" vertex="1" parent="1">
          <mxGeometry x="80" y="520" width="40" height="30" as="geometry" />
        </mxCell>
        <mxCell id="nsWa5MvO--46jtUWladC-194" value="" style="edgeStyle=orthogonalEdgeStyle;rounded=0;orthogonalLoop=1;jettySize=auto;html=1;fillColor=#d5e8d4;gradientColor=#97d077;strokeColor=#82b366;" edge="1" parent="1" source="nsWa5MvO--46jtUWladC-195" target="nsWa5MvO--46jtUWladC-196">
          <mxGeometry relative="1" as="geometry" />
        </mxCell>
        <mxCell id="nsWa5MvO--46jtUWladC-195" value="1" style="rounded=0;whiteSpace=wrap;html=1;shadow=1;glass=0;sketch=1;fillColor=#d5e8d4;gradientColor=#97d077;strokeColor=#82b366;" vertex="1" parent="1">
          <mxGeometry x="280" y="520" width="40" height="30" as="geometry" />
        </mxCell>
        <mxCell id="nsWa5MvO--46jtUWladC-196" value="2" style="rounded=0;whiteSpace=wrap;html=1;shadow=1;glass=0;sketch=1;fillColor=#d5e8d4;gradientColor=#97d077;strokeColor=#82b366;" vertex="1" parent="1">
          <mxGeometry x="360" y="520" width="40" height="30" as="geometry" />
        </mxCell>
        <mxCell id="nsWa5MvO--46jtUWladC-197" value="" style="edgeStyle=none;rounded=0;orthogonalLoop=1;jettySize=auto;html=1;fontSize=18;startArrow=none;startFill=0;fillColor=#d5e8d4;gradientColor=#97d077;strokeColor=#82b366;" edge="1" parent="1" source="nsWa5MvO--46jtUWladC-198" target="nsWa5MvO--46jtUWladC-199">
          <mxGeometry relative="1" as="geometry" />
        </mxCell>
        <mxCell id="nsWa5MvO--46jtUWladC-198" value="0" style="rounded=0;whiteSpace=wrap;html=1;shadow=1;glass=0;sketch=1;fillColor=#d5e8d4;gradientColor=#97d077;strokeColor=#82b366;" vertex="1" parent="1">
          <mxGeometry x="720" y="520" width="40" height="30" as="geometry" />
        </mxCell>
        <mxCell id="nsWa5MvO--46jtUWladC-199" value="8" style="rounded=0;whiteSpace=wrap;html=1;shadow=1;glass=0;sketch=1;fillColor=#d5e8d4;gradientColor=#97d077;strokeColor=#82b366;" vertex="1" parent="1">
          <mxGeometry x="800" y="520" width="40" height="30" as="geometry" />
        </mxCell>
        <mxCell id="nsWa5MvO--46jtUWladC-200" value="" style="edgeStyle=orthogonalEdgeStyle;rounded=0;orthogonalLoop=1;jettySize=auto;html=1;fillColor=#d5e8d4;gradientColor=#97d077;strokeColor=#82b366;" edge="1" parent="1" source="nsWa5MvO--46jtUWladC-201" target="nsWa5MvO--46jtUWladC-202">
          <mxGeometry relative="1" as="geometry" />
        </mxCell>
        <mxCell id="nsWa5MvO--46jtUWladC-201" value="4" style="rounded=0;whiteSpace=wrap;html=1;shadow=1;glass=0;sketch=1;fillColor=#d5e8d4;gradientColor=#97d077;strokeColor=#82b366;" vertex="1" parent="1">
          <mxGeometry x="520" y="520" width="40" height="30" as="geometry" />
        </mxCell>
        <mxCell id="nsWa5MvO--46jtUWladC-202" value="5" style="rounded=0;whiteSpace=wrap;html=1;shadow=1;glass=0;sketch=1;fillColor=#d5e8d4;gradientColor=#97d077;strokeColor=#82b366;" vertex="1" parent="1">
          <mxGeometry x="600" y="520" width="40" height="30" as="geometry" />
        </mxCell>
        <mxCell id="nsWa5MvO--46jtUWladC-210" value="" style="edgeStyle=orthogonalEdgeStyle;rounded=0;orthogonalLoop=1;jettySize=auto;html=1;fillColor=#d5e8d4;gradientColor=#97d077;strokeColor=#82b366;" edge="1" parent="1" source="nsWa5MvO--46jtUWladC-211" target="nsWa5MvO--46jtUWladC-213">
          <mxGeometry relative="1" as="geometry" />
        </mxCell>
        <mxCell id="nsWa5MvO--46jtUWladC-211" value="2" style="rounded=0;whiteSpace=wrap;html=1;shadow=1;glass=0;sketch=1;fillColor=#d5e8d4;gradientColor=#97d077;strokeColor=#82b366;" vertex="1" parent="1">
          <mxGeometry x="200" y="640" width="40" height="30" as="geometry" />
        </mxCell>
        <mxCell id="nsWa5MvO--46jtUWladC-212" value="" style="edgeStyle=orthogonalEdgeStyle;rounded=0;orthogonalLoop=1;jettySize=auto;html=1;fillColor=#d5e8d4;gradientColor=#97d077;strokeColor=#82b366;" edge="1" parent="1" source="nsWa5MvO--46jtUWladC-213" target="nsWa5MvO--46jtUWladC-214">
          <mxGeometry relative="1" as="geometry" />
        </mxCell>
        <mxCell id="nsWa5MvO--46jtUWladC-213" value="3" style="rounded=0;whiteSpace=wrap;html=1;shadow=1;glass=0;sketch=1;fillColor=#d5e8d4;gradientColor=#97d077;strokeColor=#82b366;" vertex="1" parent="1">
          <mxGeometry x="280" y="640" width="40" height="30" as="geometry" />
        </mxCell>
        <mxCell id="nsWa5MvO--46jtUWladC-214" value="6" style="rounded=0;whiteSpace=wrap;html=1;shadow=1;glass=0;sketch=1;fillColor=#d5e8d4;gradientColor=#97d077;strokeColor=#82b366;" vertex="1" parent="1">
          <mxGeometry x="360" y="640" width="40" height="30" as="geometry" />
        </mxCell>
        <mxCell id="nsWa5MvO--46jtUWladC-215" value="" style="edgeStyle=orthogonalEdgeStyle;rounded=0;orthogonalLoop=1;jettySize=auto;html=1;fillColor=#d5e8d4;gradientColor=#97d077;strokeColor=#82b366;" edge="1" parent="1" source="nsWa5MvO--46jtUWladC-216" target="nsWa5MvO--46jtUWladC-218">
          <mxGeometry relative="1" as="geometry" />
        </mxCell>
        <mxCell id="nsWa5MvO--46jtUWladC-216" value="0" style="rounded=0;whiteSpace=wrap;html=1;shadow=1;glass=0;sketch=1;fillColor=#d5e8d4;gradientColor=#97d077;strokeColor=#82b366;" vertex="1" parent="1">
          <mxGeometry x="520" y="640" width="40" height="30" as="geometry" />
        </mxCell>
        <mxCell id="nsWa5MvO--46jtUWladC-217" value="" style="edgeStyle=orthogonalEdgeStyle;rounded=0;orthogonalLoop=1;jettySize=auto;html=1;fillColor=#d5e8d4;gradientColor=#97d077;strokeColor=#82b366;" edge="1" parent="1" source="nsWa5MvO--46jtUWladC-218" target="nsWa5MvO--46jtUWladC-220">
          <mxGeometry relative="1" as="geometry" />
        </mxCell>
        <mxCell id="nsWa5MvO--46jtUWladC-218" value="4" style="rounded=0;whiteSpace=wrap;html=1;shadow=1;glass=0;sketch=1;fillColor=#d5e8d4;gradientColor=#97d077;strokeColor=#82b366;" vertex="1" parent="1">
          <mxGeometry x="600" y="640" width="40" height="30" as="geometry" />
        </mxCell>
        <mxCell id="nsWa5MvO--46jtUWladC-219" value="" style="edgeStyle=none;rounded=0;orthogonalLoop=1;jettySize=auto;html=1;fontSize=18;startArrow=none;startFill=0;fillColor=#d5e8d4;gradientColor=#97d077;strokeColor=#82b366;" edge="1" parent="1" source="nsWa5MvO--46jtUWladC-220" target="nsWa5MvO--46jtUWladC-226">
          <mxGeometry relative="1" as="geometry" />
        </mxCell>
        <mxCell id="nsWa5MvO--46jtUWladC-220" value="5" style="rounded=0;whiteSpace=wrap;html=1;shadow=1;glass=0;sketch=1;fillColor=#d5e8d4;gradientColor=#97d077;strokeColor=#82b366;" vertex="1" parent="1">
          <mxGeometry x="680" y="640" width="40" height="30" as="geometry" />
        </mxCell>
        <mxCell id="nsWa5MvO--46jtUWladC-223" style="edgeStyle=none;rounded=0;orthogonalLoop=1;jettySize=auto;html=1;exitX=1;exitY=0.5;exitDx=0;exitDy=0;entryX=0;entryY=0.5;entryDx=0;entryDy=0;fontSize=18;startArrow=none;startFill=0;fillColor=#d5e8d4;gradientColor=#97d077;strokeColor=#82b366;" edge="1" parent="1" source="nsWa5MvO--46jtUWladC-224" target="nsWa5MvO--46jtUWladC-211">
          <mxGeometry relative="1" as="geometry" />
        </mxCell>
        <mxCell id="nsWa5MvO--46jtUWladC-224" value="1" style="rounded=0;whiteSpace=wrap;html=1;shadow=1;glass=0;sketch=1;fillColor=#d5e8d4;gradientColor=#97d077;strokeColor=#82b366;" vertex="1" parent="1">
          <mxGeometry x="120" y="640" width="40" height="30" as="geometry" />
        </mxCell>
        <mxCell id="nsWa5MvO--46jtUWladC-226" value="8" style="rounded=0;whiteSpace=wrap;html=1;shadow=1;glass=0;sketch=1;fillColor=#d5e8d4;gradientColor=#97d077;strokeColor=#82b366;" vertex="1" parent="1">
          <mxGeometry x="760" y="640" width="40" height="30" as="geometry" />
        </mxCell>
        <mxCell id="nsWa5MvO--46jtUWladC-228" value="&lt;font style=&quot;font-size: 18px&quot;&gt;分割&lt;/font&gt;" style="text;html=1;strokeColor=#666666;fillColor=#f5f5f5;align=center;verticalAlign=middle;whiteSpace=wrap;rounded=0;shadow=1;glass=0;sketch=1;gradientColor=#b3b3b3;" vertex="1" parent="1">
          <mxGeometry x="-40" y="330" width="70" height="40" as="geometry" />
        </mxCell>
        <mxCell id="nsWa5MvO--46jtUWladC-229" value="&lt;span style=&quot;font-size: 18px&quot;&gt;递归终止&lt;/span&gt;" style="text;html=1;strokeColor=#b85450;fillColor=#f8cecc;align=center;verticalAlign=middle;whiteSpace=wrap;rounded=0;shadow=1;glass=0;sketch=1;gradientColor=#ea6b66;" vertex="1" parent="1">
          <mxGeometry x="-50" y="395" width="100" height="40" as="geometry" />
        </mxCell>
        <mxCell id="nsWa5MvO--46jtUWladC-230" value="&lt;span style=&quot;font-size: 18px&quot;&gt;合并&lt;/span&gt;" style="text;html=1;strokeColor=#82b366;fillColor=#d5e8d4;align=center;verticalAlign=middle;whiteSpace=wrap;rounded=0;shadow=1;glass=0;sketch=1;gradientColor=#97d077;" vertex="1" parent="1">
          <mxGeometry x="-40" y="580" width="70" height="40" as="geometry" />
        </mxCell>
        <mxCell id="nsWa5MvO--46jtUWladC-231" value="&lt;span style=&quot;font-size: 18px&quot;&gt;合并&lt;/span&gt;" style="text;html=1;strokeColor=#82b366;fillColor=#d5e8d4;align=center;verticalAlign=middle;whiteSpace=wrap;rounded=0;shadow=1;glass=0;sketch=1;gradientColor=#97d077;" vertex="1" parent="1">
          <mxGeometry x="-40" y="460" width="70" height="40" as="geometry" />
        </mxCell>
        <mxCell id="nsWa5MvO--46jtUWladC-232" value="" style="edgeStyle=orthogonalEdgeStyle;rounded=0;orthogonalLoop=1;jettySize=auto;html=1;fillColor=#dae8fc;gradientColor=#7ea6e0;strokeColor=#6c8ebf;" edge="1" parent="1" source="nsWa5MvO--46jtUWladC-233" target="nsWa5MvO--46jtUWladC-235">
          <mxGeometry relative="1" as="geometry" />
        </mxCell>
        <mxCell id="nsWa5MvO--46jtUWladC-233" value="1" style="rounded=0;whiteSpace=wrap;html=1;shadow=1;glass=0;sketch=1;fillColor=#dae8fc;gradientColor=#7ea6e0;strokeColor=#6c8ebf;" vertex="1" parent="1">
          <mxGeometry x="240" y="760" width="40" height="30" as="geometry" />
        </mxCell>
        <mxCell id="nsWa5MvO--46jtUWladC-234" value="" style="edgeStyle=orthogonalEdgeStyle;rounded=0;orthogonalLoop=1;jettySize=auto;html=1;fillColor=#dae8fc;gradientColor=#7ea6e0;strokeColor=#6c8ebf;" edge="1" parent="1" source="nsWa5MvO--46jtUWladC-235" target="nsWa5MvO--46jtUWladC-237">
          <mxGeometry relative="1" as="geometry" />
        </mxCell>
        <mxCell id="nsWa5MvO--46jtUWladC-235" value="2" style="rounded=0;whiteSpace=wrap;html=1;shadow=1;glass=0;sketch=1;fillColor=#dae8fc;gradientColor=#7ea6e0;strokeColor=#6c8ebf;" vertex="1" parent="1">
          <mxGeometry x="320" y="760" width="40" height="30" as="geometry" />
        </mxCell>
        <mxCell id="nsWa5MvO--46jtUWladC-236" value="" style="edgeStyle=orthogonalEdgeStyle;rounded=0;orthogonalLoop=1;jettySize=auto;html=1;fillColor=#dae8fc;gradientColor=#7ea6e0;strokeColor=#6c8ebf;" edge="1" parent="1" source="nsWa5MvO--46jtUWladC-237" target="nsWa5MvO--46jtUWladC-239">
          <mxGeometry relative="1" as="geometry" />
        </mxCell>
        <mxCell id="nsWa5MvO--46jtUWladC-237" value="3" style="rounded=0;whiteSpace=wrap;html=1;shadow=1;glass=0;sketch=1;fillColor=#dae8fc;gradientColor=#7ea6e0;strokeColor=#6c8ebf;" vertex="1" parent="1">
          <mxGeometry x="400" y="760" width="40" height="30" as="geometry" />
        </mxCell>
        <mxCell id="nsWa5MvO--46jtUWladC-238" value="" style="edgeStyle=orthogonalEdgeStyle;rounded=0;orthogonalLoop=1;jettySize=auto;html=1;fillColor=#dae8fc;gradientColor=#7ea6e0;strokeColor=#6c8ebf;" edge="1" parent="1" source="nsWa5MvO--46jtUWladC-239" target="nsWa5MvO--46jtUWladC-241">
          <mxGeometry relative="1" as="geometry" />
        </mxCell>
        <mxCell id="nsWa5MvO--46jtUWladC-239" value="4" style="rounded=0;whiteSpace=wrap;html=1;shadow=1;glass=0;sketch=1;fillColor=#dae8fc;gradientColor=#7ea6e0;strokeColor=#6c8ebf;" vertex="1" parent="1">
          <mxGeometry x="480" y="760" width="40" height="30" as="geometry" />
        </mxCell>
        <mxCell id="nsWa5MvO--46jtUWladC-240" value="" style="edgeStyle=orthogonalEdgeStyle;rounded=0;orthogonalLoop=1;jettySize=auto;html=1;fillColor=#dae8fc;gradientColor=#7ea6e0;strokeColor=#6c8ebf;" edge="1" parent="1" source="nsWa5MvO--46jtUWladC-241" target="nsWa5MvO--46jtUWladC-243">
          <mxGeometry relative="1" as="geometry" />
        </mxCell>
        <mxCell id="nsWa5MvO--46jtUWladC-241" value="5" style="rounded=0;whiteSpace=wrap;html=1;shadow=1;glass=0;sketch=1;fillColor=#dae8fc;gradientColor=#7ea6e0;strokeColor=#6c8ebf;" vertex="1" parent="1">
          <mxGeometry x="560" y="760" width="40" height="30" as="geometry" />
        </mxCell>
        <mxCell id="nsWa5MvO--46jtUWladC-242" value="" style="edgeStyle=none;rounded=0;orthogonalLoop=1;jettySize=auto;html=1;fontSize=18;startArrow=none;startFill=0;fillColor=#dae8fc;gradientColor=#7ea6e0;strokeColor=#6c8ebf;" edge="1" parent="1" source="nsWa5MvO--46jtUWladC-243" target="nsWa5MvO--46jtUWladC-246">
          <mxGeometry relative="1" as="geometry" />
        </mxCell>
        <mxCell id="nsWa5MvO--46jtUWladC-243" value="6" style="rounded=0;whiteSpace=wrap;html=1;shadow=1;glass=0;sketch=1;fillColor=#dae8fc;gradientColor=#7ea6e0;strokeColor=#6c8ebf;" vertex="1" parent="1">
          <mxGeometry x="640" y="760" width="40" height="30" as="geometry" />
        </mxCell>
        <mxCell id="nsWa5MvO--46jtUWladC-246" value="8" style="rounded=0;whiteSpace=wrap;html=1;shadow=1;glass=0;sketch=1;fillColor=#dae8fc;gradientColor=#7ea6e0;strokeColor=#6c8ebf;" vertex="1" parent="1">
          <mxGeometry x="720" y="760" width="40" height="30" as="geometry" />
        </mxCell>
        <mxCell id="nsWa5MvO--46jtUWladC-247" style="edgeStyle=none;rounded=0;orthogonalLoop=1;jettySize=auto;html=1;exitX=1;exitY=0.5;exitDx=0;exitDy=0;entryX=0;entryY=0.5;entryDx=0;entryDy=0;fontSize=18;startArrow=none;startFill=0;fillColor=#dae8fc;gradientColor=#7ea6e0;strokeColor=#6c8ebf;" edge="1" parent="1" source="nsWa5MvO--46jtUWladC-248" target="nsWa5MvO--46jtUWladC-233">
          <mxGeometry relative="1" as="geometry" />
        </mxCell>
        <mxCell id="nsWa5MvO--46jtUWladC-248" value="0" style="rounded=0;whiteSpace=wrap;html=1;shadow=1;glass=0;sketch=1;fillColor=#dae8fc;gradientColor=#7ea6e0;strokeColor=#6c8ebf;" vertex="1" parent="1">
          <mxGeometry x="160" y="760" width="40" height="30" as="geometry" />
        </mxCell>
        <mxCell id="nsWa5MvO--46jtUWladC-249" value="&lt;span style=&quot;font-size: 18px&quot;&gt;合并&lt;/span&gt;" style="text;html=1;strokeColor=#82b366;fillColor=#d5e8d4;align=center;verticalAlign=middle;whiteSpace=wrap;rounded=0;shadow=1;glass=0;sketch=1;gradientColor=#97d077;" vertex="1" parent="1">
          <mxGeometry x="-40" y="690" width="70" height="40" as="geometry" />
        </mxCell>
        <mxCell id="nsWa5MvO--46jtUWladC-250" value="&lt;span style=&quot;font-size: 18px&quot;&gt;最终结果&lt;/span&gt;" style="text;html=1;strokeColor=#6c8ebf;fillColor=#dae8fc;align=center;verticalAlign=middle;whiteSpace=wrap;rounded=0;shadow=1;glass=0;sketch=1;gradientColor=#7ea6e0;" vertex="1" parent="1">
          <mxGeometry x="-55" y="755" width="100" height="40" as="geometry" />
        </mxCell>
        <mxCell id="nsWa5MvO--46jtUWladC-251" value="" style="shape=flexArrow;endArrow=classic;html=1;rounded=0;fontSize=18;width=10;endSize=5;fillColor=#f5f5f5;gradientColor=#b3b3b3;strokeColor=#666666;" edge="1" parent="1">
          <mxGeometry width="50" height="50" relative="1" as="geometry">
            <mxPoint x="259.5" y="100" as="sourcePoint" />
            <mxPoint x="260" y="150" as="targetPoint" />
          </mxGeometry>
        </mxCell>
        <mxCell id="nsWa5MvO--46jtUWladC-252" value="" style="shape=flexArrow;endArrow=classic;html=1;rounded=0;fontSize=18;width=10;endSize=5;fillColor=#f5f5f5;gradientColor=#b3b3b3;strokeColor=#666666;" edge="1" parent="1">
          <mxGeometry width="50" height="50" relative="1" as="geometry">
            <mxPoint x="650" y="100" as="sourcePoint" />
            <mxPoint x="650.5" y="150" as="targetPoint" />
          </mxGeometry>
        </mxCell>
        <mxCell id="nsWa5MvO--46jtUWladC-253" value="" style="shape=flexArrow;endArrow=classic;html=1;rounded=0;fontSize=18;width=10;endSize=5;fillColor=#f5f5f5;gradientColor=#b3b3b3;strokeColor=#666666;" edge="1" parent="1">
          <mxGeometry width="50" height="50" relative="1" as="geometry">
            <mxPoint x="139.5" y="220" as="sourcePoint" />
            <mxPoint x="140" y="270" as="targetPoint" />
          </mxGeometry>
        </mxCell>
        <mxCell id="nsWa5MvO--46jtUWladC-254" value="" style="shape=flexArrow;endArrow=classic;html=1;rounded=0;fontSize=18;width=10;endSize=5;fillColor=#f5f5f5;gradientColor=#b3b3b3;strokeColor=#666666;" edge="1" parent="1">
          <mxGeometry width="50" height="50" relative="1" as="geometry">
            <mxPoint x="339.5" y="220" as="sourcePoint" />
            <mxPoint x="340" y="270" as="targetPoint" />
          </mxGeometry>
        </mxCell>
        <mxCell id="nsWa5MvO--46jtUWladC-255" value="" style="shape=flexArrow;endArrow=classic;html=1;rounded=0;fontSize=18;width=10;endSize=5;fillColor=#f5f5f5;gradientColor=#b3b3b3;strokeColor=#666666;" edge="1" parent="1">
          <mxGeometry width="50" height="50" relative="1" as="geometry">
            <mxPoint x="579.5" y="220" as="sourcePoint" />
            <mxPoint x="580" y="270" as="targetPoint" />
          </mxGeometry>
        </mxCell>
        <mxCell id="nsWa5MvO--46jtUWladC-256" value="" style="shape=flexArrow;endArrow=classic;html=1;rounded=0;fontSize=18;width=10;endSize=5;fillColor=#f5f5f5;gradientColor=#b3b3b3;strokeColor=#666666;" edge="1" parent="1">
          <mxGeometry width="50" height="50" relative="1" as="geometry">
            <mxPoint x="780" y="220" as="sourcePoint" />
            <mxPoint x="780.5" y="270" as="targetPoint" />
          </mxGeometry>
        </mxCell>
        <mxCell id="nsWa5MvO--46jtUWladC-257" value="" style="shape=flexArrow;endArrow=classic;html=1;rounded=0;fontSize=18;width=10;endSize=5;fillColor=#d5e8d4;gradientColor=#97d077;strokeColor=#82b366;" edge="1" parent="1">
          <mxGeometry width="50" height="50" relative="1" as="geometry">
            <mxPoint x="139.5" y="455" as="sourcePoint" />
            <mxPoint x="140" y="505" as="targetPoint" />
          </mxGeometry>
        </mxCell>
        <mxCell id="nsWa5MvO--46jtUWladC-259" value="" style="shape=flexArrow;endArrow=classic;html=1;rounded=0;fontSize=18;width=10;endSize=5;fillColor=#f5f5f5;gradientColor=#b3b3b3;strokeColor=#666666;" edge="1" parent="1">
          <mxGeometry width="50" height="50" relative="1" as="geometry">
            <mxPoint x="99.5" y="340" as="sourcePoint" />
            <mxPoint x="100" y="390" as="targetPoint" />
          </mxGeometry>
        </mxCell>
        <mxCell id="nsWa5MvO--46jtUWladC-260" value="" style="shape=flexArrow;endArrow=classic;html=1;rounded=0;fontSize=18;width=10;endSize=5;fillColor=#f5f5f5;gradientColor=#b3b3b3;strokeColor=#666666;" edge="1" parent="1">
          <mxGeometry width="50" height="50" relative="1" as="geometry">
            <mxPoint x="179.5" y="340" as="sourcePoint" />
            <mxPoint x="180" y="390" as="targetPoint" />
          </mxGeometry>
        </mxCell>
        <mxCell id="nsWa5MvO--46jtUWladC-261" value="" style="shape=flexArrow;endArrow=classic;html=1;rounded=0;fontSize=18;width=10;endSize=5;fillColor=#f5f5f5;gradientColor=#b3b3b3;strokeColor=#666666;" edge="1" parent="1">
          <mxGeometry width="50" height="50" relative="1" as="geometry">
            <mxPoint x="299.5" y="340" as="sourcePoint" />
            <mxPoint x="300" y="390" as="targetPoint" />
          </mxGeometry>
        </mxCell>
        <mxCell id="nsWa5MvO--46jtUWladC-262" value="" style="shape=flexArrow;endArrow=classic;html=1;rounded=0;fontSize=18;width=10;endSize=5;fillColor=#f5f5f5;gradientColor=#b3b3b3;strokeColor=#666666;" edge="1" parent="1">
          <mxGeometry width="50" height="50" relative="1" as="geometry">
            <mxPoint x="379.5" y="340" as="sourcePoint" />
            <mxPoint x="380" y="390" as="targetPoint" />
          </mxGeometry>
        </mxCell>
        <mxCell id="nsWa5MvO--46jtUWladC-263" value="" style="shape=flexArrow;endArrow=classic;html=1;rounded=0;fontSize=18;width=10;endSize=5;fillColor=#f5f5f5;gradientColor=#b3b3b3;strokeColor=#666666;" edge="1" parent="1">
          <mxGeometry width="50" height="50" relative="1" as="geometry">
            <mxPoint x="539.5" y="340" as="sourcePoint" />
            <mxPoint x="540" y="390" as="targetPoint" />
          </mxGeometry>
        </mxCell>
        <mxCell id="nsWa5MvO--46jtUWladC-264" value="" style="shape=flexArrow;endArrow=classic;html=1;rounded=0;fontSize=18;width=10;endSize=5;fillColor=#f5f5f5;gradientColor=#b3b3b3;strokeColor=#666666;" edge="1" parent="1">
          <mxGeometry width="50" height="50" relative="1" as="geometry">
            <mxPoint x="619.5" y="340" as="sourcePoint" />
            <mxPoint x="620" y="390" as="targetPoint" />
          </mxGeometry>
        </mxCell>
        <mxCell id="nsWa5MvO--46jtUWladC-265" value="" style="shape=flexArrow;endArrow=classic;html=1;rounded=0;fontSize=18;width=10;endSize=5;fillColor=#f5f5f5;gradientColor=#b3b3b3;strokeColor=#666666;" edge="1" parent="1">
          <mxGeometry width="50" height="50" relative="1" as="geometry">
            <mxPoint x="739.5" y="340" as="sourcePoint" />
            <mxPoint x="740" y="390" as="targetPoint" />
          </mxGeometry>
        </mxCell>
        <mxCell id="nsWa5MvO--46jtUWladC-266" value="" style="shape=flexArrow;endArrow=classic;html=1;rounded=0;fontSize=18;width=10;endSize=5;fillColor=#f5f5f5;gradientColor=#b3b3b3;strokeColor=#666666;" edge="1" parent="1">
          <mxGeometry width="50" height="50" relative="1" as="geometry">
            <mxPoint x="819.5" y="340" as="sourcePoint" />
            <mxPoint x="820" y="390" as="targetPoint" />
          </mxGeometry>
        </mxCell>
        <mxCell id="nsWa5MvO--46jtUWladC-267" value="" style="shape=flexArrow;endArrow=classic;html=1;rounded=0;fontSize=18;width=10;endSize=5;fillColor=#d5e8d4;gradientColor=#97d077;strokeColor=#82b366;" edge="1" parent="1">
          <mxGeometry width="50" height="50" relative="1" as="geometry">
            <mxPoint x="339.5" y="455" as="sourcePoint" />
            <mxPoint x="340" y="505" as="targetPoint" />
          </mxGeometry>
        </mxCell>
        <mxCell id="nsWa5MvO--46jtUWladC-268" value="" style="shape=flexArrow;endArrow=classic;html=1;rounded=0;fontSize=18;width=10;endSize=5;fillColor=#d5e8d4;gradientColor=#97d077;strokeColor=#82b366;" edge="1" parent="1">
          <mxGeometry width="50" height="50" relative="1" as="geometry">
            <mxPoint x="579.5" y="455" as="sourcePoint" />
            <mxPoint x="580" y="505" as="targetPoint" />
          </mxGeometry>
        </mxCell>
        <mxCell id="nsWa5MvO--46jtUWladC-269" value="" style="shape=flexArrow;endArrow=classic;html=1;rounded=0;fontSize=18;width=10;endSize=5;fillColor=#d5e8d4;gradientColor=#97d077;strokeColor=#82b366;" edge="1" parent="1">
          <mxGeometry width="50" height="50" relative="1" as="geometry">
            <mxPoint x="779.5" y="455" as="sourcePoint" />
            <mxPoint x="780" y="505" as="targetPoint" />
          </mxGeometry>
        </mxCell>
        <mxCell id="nsWa5MvO--46jtUWladC-270" value="" style="shape=flexArrow;endArrow=classic;html=1;rounded=0;fontSize=18;width=10;endSize=5;fillColor=#d5e8d4;gradientColor=#97d077;strokeColor=#82b366;" edge="1" parent="1">
          <mxGeometry width="50" height="50" relative="1" as="geometry">
            <mxPoint x="250" y="575" as="sourcePoint" />
            <mxPoint x="250.5" y="625" as="targetPoint" />
          </mxGeometry>
        </mxCell>
        <mxCell id="nsWa5MvO--46jtUWladC-271" value="" style="shape=flexArrow;endArrow=classic;html=1;rounded=0;fontSize=18;width=10;endSize=5;fillColor=#d5e8d4;gradientColor=#97d077;strokeColor=#82b366;" edge="1" parent="1">
          <mxGeometry width="50" height="50" relative="1" as="geometry">
            <mxPoint x="679" y="570" as="sourcePoint" />
            <mxPoint x="679.5" y="620" as="targetPoint" />
          </mxGeometry>
        </mxCell>
        <mxCell id="nsWa5MvO--46jtUWladC-272" value="" style="shape=flexArrow;endArrow=classic;html=1;rounded=0;fontSize=18;width=10;endSize=5;fillColor=#d5e8d4;gradientColor=#97d077;strokeColor=#82b366;" edge="1" parent="1">
          <mxGeometry width="50" height="50" relative="1" as="geometry">
            <mxPoint x="460" y="700" as="sourcePoint" />
            <mxPoint x="460.5" y="750" as="targetPoint" />
          </mxGeometry>
        </mxCell>
      </root>
    </mxGraphModel>
  </diagram>
</mxfile>
